<svg width="16" height="15" viewBox="0 0 16 15" fill="none" xmlns="http://www.w3.org/2000/svg">
<path d="M15.3 5.77783L11.8 5.97783L8.6 1.07783C8.5 0.877832 8.2 0.777832 8 0.777832C7.8 0.777832 7.5 0.877832 7.4 1.07783L4.2 5.97783H0.7C0.3 5.97783 0 6.27783 0 6.67783C0 6.77783 0 6.77783 0 6.87783L1.9 13.6778C2.1 14.3778 2.6 14.7778 3.3 14.7778H12.7C13.4 14.7778 13.9 14.3778 14.1 13.6778L16 6.77783C16 6.67783 16 6.67783 16 6.57783C16 6.17783 15.7 5.77783 15.3 5.77783ZM8 2.67783L10.2 5.87783H5.9L8 2.67783Z" fill="black"/>
</svg>
